<svg width="70" height="70" viewBox="0 0 70 70" fill="none" xmlns="http://www.w3.org/2000/svg">
<path d="M46.6663 37.187H23.333C22.1372 37.187 21.1455 36.1953 21.1455 34.9995C21.1455 33.8037 22.1372 32.812 23.333 32.812H46.6663C47.8622 32.812 48.8538 33.8037 48.8538 34.9995C48.8538 36.1953 47.8622 37.187 46.6663 37.187Z" fill="#685CF0"/>
<path d="M35 48.8548C33.8042 48.8548 32.8125 47.8631 32.8125 46.6673V23.334C32.8125 22.1382 33.8042 21.1465 35 21.1465C36.1958 21.1465 37.1875 22.1382 37.1875 23.334V46.6673C37.1875 47.8631 36.1958 48.8548 35 48.8548Z" fill="#685CF0"/>
<path d="M43.7502 66.3543H26.2502C10.4127 66.3543 3.646 59.5877 3.646 43.7502L3.646 26.2502C3.646 10.4127 10.4127 3.646 26.2502 3.646L43.7502 3.646C59.5877 3.646 66.3543 10.4127 66.3543 26.2502V43.7502C66.3543 59.5877 59.5877 66.3543 43.7502 66.3543ZM26.2502 8.021C12.8043 8.021 8.021 12.8043 8.021 26.2502L8.021 43.7502C8.021 57.196 12.8043 61.9793 26.2502 61.9793H43.7502C57.196 61.9793 61.9793 57.196 61.9793 43.7502V26.2502C61.9793 12.8043 57.196 8.021 43.7502 8.021L26.2502 8.021Z" fill="#685CF0"/>
</svg>
