<svg width="104" height="32" viewBox="0 0 104 32" fill="none" xmlns="http://www.w3.org/2000/svg">
<g clip-path="url(#clip0_640_9541)">
<path d="M32 16C32 7.16344 24.8366 0 16 0C7.16344 0 0 7.16344 0 16C0 24.8366 7.16344 32 16 32C24.8366 32 32 24.8366 32 16Z" fill="#685CF0"/>
<path fill-rule="evenodd" clip-rule="evenodd" d="M16.7432 11.5498C20.4382 11.5498 23.4337 14.5453 23.4337 18.2403C23.4337 21.9354 20.4382 24.9308 16.7432 24.9308C13.0481 24.9308 10.0527 21.9354 10.0527 18.2403V11.5498H16.7432ZM16.7432 14.8431C18.6194 14.8431 20.1404 16.3641 20.1404 18.2403C20.1404 20.1166 18.6194 21.6376 16.7432 21.6376C14.8669 21.6376 13.3459 20.1166 13.3459 18.2403V14.8431H16.7432Z" fill="#222222"/>
<path fill-rule="evenodd" clip-rule="evenodd" d="M23.4347 18.2724C23.4347 14.5773 20.4393 11.5819 16.7442 11.5819C13.0492 11.5819 10.0537 14.5773 10.0537 18.2724C10.0537 21.9675 13.0492 24.9629 16.7442 24.9629C20.4393 24.9629 23.4347 21.9675 23.4347 18.2724ZM16.7442 14.8751C18.6205 14.8751 20.1415 16.3961 20.1415 18.2724C20.1415 20.1486 18.6205 21.6696 16.7442 21.6696C14.868 21.6696 13.347 20.1486 13.347 18.2724V14.8751H16.7442Z" fill="#222222"/>
<path d="M13.0522 11.5879V14.8638H16.735V11.5879H13.0522Z" fill="#222222"/>
<path fill-rule="evenodd" clip-rule="evenodd" d="M23.4347 18.271C23.4347 14.576 20.4392 11.5805 16.7442 11.5805H13.3477V10.4957C13.3477 8.67618 11.8727 7.20117 10.0532 7.20117V15.1352H10.0537V18.271C10.0537 21.9661 13.0491 24.9615 16.7442 24.9615C20.4392 24.9615 23.4347 21.9661 23.4347 18.271ZM13.3477 14.8738V15.1352H13.3469V18.271C13.3469 20.1473 14.8679 21.6683 16.7442 21.6683C18.6204 21.6683 20.1414 20.1473 20.1414 18.271C20.1414 16.3948 18.6204 14.8738 16.7442 14.8738H13.3477Z" fill="#222222"/>
<path d="M41.8071 23V9.01914H46.8875C47.8327 9.01914 48.6466 9.1701 49.3292 9.47204C50.025 9.76085 50.5567 10.1809 50.9242 10.7323C51.3049 11.2705 51.4953 11.9072 51.4953 12.6423C51.4953 13.3118 51.3509 13.9026 51.0621 14.4146C50.7733 14.9134 50.3663 15.3072 49.8412 15.596C50.5501 15.8717 51.1015 16.3115 51.4953 16.9154C51.8891 17.5061 52.086 18.2084 52.086 19.0223C52.086 19.8363 51.876 20.5386 51.4559 21.1293C51.0358 21.7201 50.4451 22.1795 49.6837 22.5077C48.9223 22.8359 48.0231 23 46.986 23H41.8071ZM44.6427 11.4412V14.6509H46.5725C47.2157 14.6509 47.708 14.5196 48.0493 14.257C48.4038 13.9814 48.581 13.581 48.581 13.0559C48.581 12.5308 48.4038 12.1304 48.0493 11.8547C47.708 11.579 47.2157 11.4412 46.5725 11.4412H44.6427ZM44.6427 20.578H46.8481C47.5833 20.578 48.1478 20.4204 48.5416 20.1054C48.9485 19.7903 49.152 19.3374 49.152 18.7467C49.152 18.1559 48.9485 17.703 48.5416 17.388C48.1478 17.0729 47.5833 16.9154 46.8481 16.9154H44.6427V20.578ZM59.076 23.2954C58.3015 23.2954 57.586 23.1641 56.9297 22.9015C56.2864 22.6259 55.7285 22.2452 55.2559 21.7594C54.7833 21.2606 54.4157 20.6764 54.1532 20.0069C53.8906 19.3243 53.7593 18.5826 53.7593 17.7818C53.7593 17.0073 53.8906 16.2852 54.1532 15.6157C54.4157 14.9462 54.7767 14.3686 55.2362 13.8829C55.7088 13.384 56.2601 12.9968 56.8903 12.7211C57.5204 12.4454 58.203 12.3076 58.9382 12.3076C59.6996 12.3076 60.3888 12.4389 61.0058 12.7014C61.6359 12.964 62.1741 13.3381 62.6205 13.8238C63.0668 14.3095 63.4081 14.8872 63.6444 15.5567C63.8938 16.2262 64.0185 16.9744 64.0185 17.8015V18.4907H56.5555C56.6737 19.2652 56.9559 19.8756 57.4022 20.322C57.8486 20.7552 58.4131 20.9718 59.0957 20.9718C59.5683 20.9718 59.9949 20.8602 60.3756 20.637C60.7695 20.4139 61.0911 20.0922 61.3405 19.6722L63.8019 20.4598C63.5656 21.0506 63.2112 21.556 62.7386 21.976C62.266 22.3961 61.7147 22.7243 61.0845 22.9606C60.4544 23.1838 59.7849 23.2954 59.076 23.2954ZM58.9382 14.4343C58.3343 14.4343 57.8223 14.6312 57.4022 15.025C56.9953 15.4188 56.7262 15.9571 56.5949 16.6397H61.183C61.078 15.9571 60.822 15.4188 60.415 15.025C60.0212 14.6312 59.5289 14.4343 58.9382 14.4343ZM69.7832 23.2954C69.0481 23.2954 68.3785 23.1772 67.7747 22.9409C67.1839 22.7046 66.6785 22.3699 66.2584 21.9367C65.8515 21.5035 65.5692 20.9915 65.4117 20.4007L67.8928 19.8691C68.0241 20.276 68.2604 20.5977 68.6017 20.8339C68.943 21.0702 69.35 21.1884 69.8226 21.1884C70.2689 21.1884 70.6365 21.0899 70.9253 20.893C71.2141 20.6961 71.3585 20.427 71.3585 20.0857C71.3585 19.7969 71.2272 19.5606 70.9647 19.3768C70.7153 19.1799 70.2952 19.0289 69.7044 18.9239L69.1531 18.8254C68.0241 18.6285 67.1642 18.2609 66.5735 17.7227C65.9959 17.1845 65.7071 16.5018 65.7071 15.6748C65.7071 15.0184 65.8777 14.4408 66.2191 13.942C66.5604 13.43 67.033 13.0296 67.6368 12.7408C68.2407 12.452 68.9365 12.3076 69.7241 12.3076C70.4199 12.3076 71.05 12.4257 71.6145 12.662C72.1921 12.8852 72.6713 13.2068 73.052 13.6269C73.4327 14.047 73.6952 14.5524 73.8396 15.1431L71.3782 15.6551C71.2469 15.2613 71.0303 14.9528 70.7284 14.7296C70.4396 14.5065 70.0983 14.3949 69.7044 14.3949C69.2975 14.3949 68.9627 14.4933 68.7002 14.6902C68.4376 14.8872 68.3063 15.1366 68.3063 15.4385C68.3063 15.7011 68.4311 15.9242 68.6805 16.108C68.943 16.2787 69.3828 16.4165 69.9998 16.5215L70.5512 16.62C71.667 16.8169 72.5203 17.191 73.111 17.7424C73.7018 18.2806 73.9971 18.9698 73.9971 19.81C73.9971 20.322 73.8921 20.788 73.6821 21.2081C73.4852 21.6282 73.1964 21.9957 72.8157 22.3108C72.435 22.6259 71.9886 22.8687 71.4767 23.0394C70.9647 23.21 70.4002 23.2954 69.7832 23.2954ZM75.9114 23V12.603H78.4516L78.5303 13.942C78.8323 13.4431 79.2458 13.0493 79.7709 12.7605C80.3091 12.4586 80.9195 12.3076 81.6022 12.3076C82.3636 12.3076 83.0265 12.4914 83.591 12.8589C84.1686 13.2134 84.615 13.7254 84.93 14.3949C85.2451 15.0644 85.4026 15.852 85.4026 16.7578V23H82.6458V17.1123C82.6458 16.3903 82.4817 15.8258 82.1535 15.4188C81.8253 14.9987 81.3724 14.7887 80.7948 14.7887C80.3747 14.7887 80.0072 14.8872 79.6921 15.0841C79.377 15.2679 79.1276 15.5304 78.9438 15.8717C78.7601 16.213 78.6682 16.6003 78.6682 17.0335V23H75.9114ZM90.7537 9.7871C90.7537 10.089 90.6815 10.3581 90.5371 10.5944C90.4059 10.8307 90.2155 11.0211 89.9661 11.1655C89.7298 11.2968 89.4672 11.3624 89.1784 11.3624C88.8896 11.3624 88.6205 11.2968 88.3711 11.1655C88.1348 11.0211 87.9444 10.8307 87.8 10.5944C87.6688 10.3581 87.6031 10.089 87.6031 9.7871C87.6031 9.48517 87.6688 9.21605 87.8 8.97975C87.9444 8.74346 88.1348 8.55967 88.3711 8.4284C88.6205 8.28399 88.8896 8.21179 89.1784 8.21179C89.4672 8.21179 89.7298 8.28399 89.9661 8.4284C90.2155 8.55967 90.4059 8.74346 90.5371 8.97975C90.6815 9.21605 90.7537 9.48517 90.7537 9.7871ZM87.8 23V12.603H90.5568V23H87.8ZM92.9582 23V8.31025H95.656V16.8366L99.5155 12.603H102.745L98.4128 17.2107L103.218 23H99.7321L95.656 17.8212V23H92.9582Z" fill="#222222"/>
</g>
<defs>
<clipPath id="clip0_640_9541">
<rect width="104" height="32" fill="#222222"/>
</clipPath>
</defs>
</svg>
