<svg width="104" height="32" viewBox="0 0 104 32" fill="none" xmlns="http://www.w3.org/2000/svg">
<g clip-path="url(#clip0_180_316)">
<path d="M32 16C32 7.16344 24.8366 0 16 0C7.16344 0 0 7.16344 0 16C0 24.8366 7.16344 32 16 32C24.8366 32 32 24.8366 32 16Z" fill="#685CF0"/>
<path fill-rule="evenodd" clip-rule="evenodd" d="M16.7432 11.5493C20.4382 11.5493 23.4337 14.5448 23.4337 18.2398C23.4337 21.9349 20.4382 24.9303 16.7432 24.9303C13.0481 24.9303 10.0527 21.9349 10.0527 18.2398V11.5493H16.7432ZM16.7432 14.8426C18.6194 14.8426 20.1404 16.3636 20.1404 18.2398C20.1404 20.1161 18.6194 21.6371 16.7432 21.6371C14.8669 21.6371 13.3459 20.1161 13.3459 18.2398V14.8426H16.7432Z" fill="white"/>
<path fill-rule="evenodd" clip-rule="evenodd" d="M23.4347 18.2723C23.4347 14.5772 20.4393 11.5818 16.7442 11.5818C13.0492 11.5818 10.0537 14.5772 10.0537 18.2723C10.0537 21.9674 13.0492 24.9628 16.7442 24.9628C20.4393 24.9628 23.4347 21.9674 23.4347 18.2723ZM16.7442 14.875C18.6205 14.875 20.1415 16.396 20.1415 18.2723C20.1415 20.1485 18.6205 21.6695 16.7442 21.6695C14.868 21.6695 13.347 20.1485 13.347 18.2723V14.875H16.7442Z" fill="white"/>
<path d="M13.0522 11.5876V14.8635H16.735V11.5876H13.0522Z" fill="white"/>
<path fill-rule="evenodd" clip-rule="evenodd" d="M23.4347 18.2715C23.4347 14.5765 20.4392 11.581 16.7442 11.581H13.3477V10.4962C13.3477 8.67667 11.8727 7.20166 10.0532 7.20166V15.1357H10.0537V18.2715C10.0537 21.9666 13.0491 24.962 16.7442 24.962C20.4392 24.962 23.4347 21.9666 23.4347 18.2715ZM13.3477 14.8743V15.1357H13.3469V18.2715C13.3469 20.1478 14.8679 21.6688 16.7442 21.6688C18.6204 21.6688 20.1414 20.1478 20.1414 18.2715C20.1414 16.3953 18.6204 14.8743 16.7442 14.8743H13.3477Z" fill="white"/>
<path d="M41.8071 22.9999V9.01902H46.8875C47.8327 9.01902 48.6466 9.16998 49.3292 9.47192C50.025 9.76073 50.5567 10.1808 50.9242 10.7322C51.3049 11.2704 51.4953 11.9071 51.4953 12.6422C51.4953 13.3117 51.3509 13.9025 51.0621 14.4145C50.7733 14.9133 50.3663 15.3071 49.8412 15.5959C50.5501 15.8716 51.1015 16.3114 51.4953 16.9153C51.8891 17.506 52.086 18.2083 52.086 19.0222C52.086 19.8362 51.876 20.5385 51.4559 21.1292C51.0358 21.72 50.4451 22.1794 49.6837 22.5076C48.9223 22.8358 48.0231 22.9999 46.986 22.9999H41.8071ZM44.6427 11.4411V14.6508H46.5725C47.2157 14.6508 47.708 14.5195 48.0493 14.2569C48.4038 13.9813 48.581 13.5809 48.581 13.0558C48.581 12.5307 48.4038 12.1303 48.0493 11.8546C47.708 11.5789 47.2157 11.4411 46.5725 11.4411H44.6427ZM44.6427 20.5779H46.8481C47.5833 20.5779 48.1478 20.4203 48.5416 20.1053C48.9485 19.7902 49.152 19.3373 49.152 18.7466C49.152 18.1558 48.9485 17.7029 48.5416 17.3879C48.1478 17.0728 47.5833 16.9153 46.8481 16.9153H44.6427V20.5779ZM59.076 23.2953C58.3015 23.2953 57.586 23.164 56.9297 22.9014C56.2864 22.6258 55.7285 22.2451 55.2559 21.7593C54.7833 21.2605 54.4157 20.6763 54.1532 20.0068C53.8906 19.3242 53.7593 18.5825 53.7593 17.7817C53.7593 17.0072 53.8906 16.2851 54.1532 15.6156C54.4157 14.9461 54.7767 14.3685 55.2362 13.8828C55.7088 13.3839 56.2601 12.9967 56.8903 12.721C57.5204 12.4453 58.203 12.3075 58.9382 12.3075C59.6996 12.3075 60.3888 12.4388 61.0058 12.7013C61.6359 12.9639 62.1741 13.338 62.6205 13.8237C63.0668 14.3094 63.4081 14.8871 63.6444 15.5566C63.8938 16.2261 64.0185 16.9743 64.0185 17.8014V18.4906H56.5555C56.6737 19.2651 56.9559 19.8755 57.4022 20.3219C57.8486 20.7551 58.4131 20.9717 59.0957 20.9717C59.5683 20.9717 59.9949 20.8601 60.3756 20.6369C60.7695 20.4138 61.0911 20.0921 61.3405 19.6721L63.8019 20.4597C63.5656 21.0505 63.2112 21.5559 62.7386 21.9759C62.266 22.396 61.7147 22.7242 61.0845 22.9605C60.4544 23.1837 59.7849 23.2953 59.076 23.2953ZM58.9382 14.4342C58.3343 14.4342 57.8223 14.6311 57.4022 15.0249C56.9953 15.4187 56.7262 15.957 56.5949 16.6396H61.183C61.078 15.957 60.822 15.4187 60.415 15.0249C60.0212 14.6311 59.5289 14.4342 58.9382 14.4342ZM69.7832 23.2953C69.0481 23.2953 68.3785 23.1771 67.7747 22.9408C67.1839 22.7045 66.6785 22.3698 66.2584 21.9366C65.8515 21.5034 65.5692 20.9914 65.4117 20.4006L67.8928 19.869C68.0241 20.2759 68.2604 20.5976 68.6017 20.8338C68.943 21.0701 69.35 21.1883 69.8226 21.1883C70.2689 21.1883 70.6365 21.0898 70.9253 20.8929C71.2141 20.696 71.3585 20.4269 71.3585 20.0856C71.3585 19.7968 71.2272 19.5605 70.9647 19.3767C70.7153 19.1798 70.2952 19.0288 69.7044 18.9238L69.1531 18.8253C68.0241 18.6284 67.1642 18.2608 66.5735 17.7226C65.9959 17.1844 65.7071 16.5017 65.7071 15.6747C65.7071 15.0183 65.8777 14.4407 66.2191 13.9419C66.5604 13.4299 67.033 13.0295 67.6368 12.7407C68.2407 12.4519 68.9365 12.3075 69.7241 12.3075C70.4199 12.3075 71.05 12.4256 71.6145 12.6619C72.1921 12.8851 72.6713 13.2067 73.052 13.6268C73.4327 14.0469 73.6952 14.5523 73.8396 15.143L71.3782 15.655C71.2469 15.2612 71.0303 14.9527 70.7284 14.7295C70.4396 14.5064 70.0983 14.3948 69.7044 14.3948C69.2975 14.3948 68.9627 14.4932 68.7002 14.6901C68.4376 14.8871 68.3063 15.1365 68.3063 15.4384C68.3063 15.701 68.4311 15.9241 68.6805 16.1079C68.943 16.2786 69.3828 16.4164 69.9998 16.5214L70.5512 16.6199C71.667 16.8168 72.5203 17.1909 73.111 17.7423C73.7018 18.2805 73.9971 18.9697 73.9971 19.8099C73.9971 20.3219 73.8921 20.7879 73.6821 21.208C73.4852 21.6281 73.1964 21.9956 72.8157 22.3107C72.435 22.6258 71.9886 22.8686 71.4767 23.0393C70.9647 23.2099 70.4002 23.2953 69.7832 23.2953ZM75.9114 22.9999V12.6029H78.4516L78.5303 13.9419C78.8323 13.443 79.2458 13.0492 79.7709 12.7604C80.3091 12.4585 80.9195 12.3075 81.6022 12.3075C82.3636 12.3075 83.0265 12.4913 83.591 12.8588C84.1686 13.2133 84.615 13.7253 84.93 14.3948C85.2451 15.0643 85.4026 15.8519 85.4026 16.7577V22.9999H82.6458V17.1122C82.6458 16.3902 82.4817 15.8257 82.1535 15.4187C81.8253 14.9986 81.3724 14.7886 80.7948 14.7886C80.3747 14.7886 80.0072 14.8871 79.6921 15.084C79.377 15.2678 79.1276 15.5303 78.9438 15.8716C78.7601 16.2129 78.6682 16.6002 78.6682 17.0334V22.9999H75.9114ZM90.7537 9.78698C90.7537 10.0889 90.6815 10.358 90.5371 10.5943C90.4059 10.8306 90.2155 11.021 89.9661 11.1654C89.7298 11.2967 89.4672 11.3623 89.1784 11.3623C88.8896 11.3623 88.6205 11.2967 88.3711 11.1654C88.1348 11.021 87.9444 10.8306 87.8 10.5943C87.6688 10.358 87.6031 10.0889 87.6031 9.78698C87.6031 9.48505 87.6688 9.21593 87.8 8.97963C87.9444 8.74334 88.1348 8.55955 88.3711 8.42828C88.6205 8.28387 88.8896 8.21167 89.1784 8.21167C89.4672 8.21167 89.7298 8.28387 89.9661 8.42828C90.2155 8.55955 90.4059 8.74334 90.5371 8.97963C90.6815 9.21593 90.7537 9.48505 90.7537 9.78698ZM87.8 22.9999V12.6029H90.5568V22.9999H87.8ZM92.9582 22.9999V8.31013H95.656V16.8365L99.5155 12.6029H102.745L98.4128 17.2106L103.218 22.9999H99.7321L95.656 17.8211V22.9999H92.9582Z" fill="white"/>
</g>
<defs>
<clipPath id="clip0_180_316">
<rect width="104" height="32" fill="white"/>
</clipPath>
</defs>
</svg>
