<svg width="24" height="24" viewBox="0 0 24 24" fill="none" xmlns="http://www.w3.org/2000/svg">
<path d="M19.4286 6.28571H16.0001V5.71428C15.9995 5.25982 15.8188 4.82397 15.4974 4.50269C15.1761 4.18126 14.7402 4.00052 14.2858 4H9.71431C9.25984 4.00051 8.82398 4.18125 8.50271 4.50269C8.18128 4.82399 8.00053 5.25985 8.00001 5.71428V6.28571H4.57142C4.36721 6.28571 4.17857 6.39464 4.07653 6.57143C3.97449 6.74821 3.97449 6.96607 4.07653 7.14285C4.17857 7.31964 4.36722 7.42857 4.57142 7.42857H5.76379L6.76481 18.4408C6.8018 18.8676 6.99784 19.2649 7.31429 19.5538C7.63062 19.8426 8.04403 20.0019 8.47247 20H15.5275C15.956 20.0019 16.3694 19.8426 16.6857 19.5538C17.0022 19.2649 17.1982 18.8676 17.2352 18.4408L18.2362 7.42857H19.4286C19.6328 7.42857 19.8214 7.31964 19.9235 7.14285C20.0255 6.96607 20.0255 6.74821 19.9235 6.57143C19.8214 6.39464 19.6328 6.28571 19.4286 6.28571H19.4286ZM9.14288 5.71428C9.143 5.56275 9.20321 5.41747 9.31035 5.31033C9.41749 5.20319 9.56278 5.14299 9.7143 5.14286H14.2858C14.4373 5.14299 14.5826 5.20319 14.6897 5.31033C14.7969 5.41747 14.8571 5.56276 14.8572 5.71428V6.28571H9.14287L9.14288 5.71428ZM16.0967 18.337C16.0845 18.4793 16.0192 18.6118 15.9137 18.7081C15.8082 18.8044 15.6703 18.8576 15.5274 18.857H8.47239C8.32953 18.8576 8.19165 18.8044 8.08617 18.7081C7.98068 18.6118 7.91538 18.4793 7.90313 18.337L6.91142 7.42857H17.0888L16.0967 18.337Z" fill="black"/>
<path d="M10.2855 9.71436C10.134 9.71436 9.9886 9.77456 9.88146 9.8817C9.77432 9.98884 9.71411 10.1343 9.71411 10.2858V16.0001C9.71411 16.2043 9.82304 16.3929 9.99983 16.495C10.1766 16.597 10.3945 16.597 10.5713 16.495C10.748 16.3929 10.857 16.2043 10.857 16.0001V10.2858C10.857 10.1343 10.7968 9.98884 10.6896 9.8817C10.5825 9.77456 10.4371 9.71436 10.2855 9.71436Z" fill="black"/>
<path d="M13.7143 9.71436C13.5627 9.71436 13.4173 9.77456 13.3102 9.8817C13.203 9.98884 13.1428 10.1343 13.1428 10.2858V16.0001C13.1428 16.2043 13.2518 16.3929 13.4285 16.495C13.6053 16.597 13.8232 16.597 14 16.495C14.1768 16.3929 14.2857 16.2043 14.2857 16.0001V10.2858C14.2857 10.1343 14.2255 9.98884 14.1183 9.8817C14.0112 9.77456 13.8658 9.71436 13.7143 9.71436Z" fill="black"/>
</svg>
