<svg width="14" height="14" viewBox="0 0 14 14" fill="none" xmlns="http://www.w3.org/2000/svg">
<path d="M9.33342 7.52484V9.97484C9.33342 12.0165 8.51675 12.8332 6.47508 12.8332H4.02508C1.98341 12.8332 1.16675 12.0165 1.16675 9.97484V7.52484C1.16675 5.48317 1.98341 4.6665 4.02508 4.6665H6.47508C8.51675 4.6665 9.33342 5.48317 9.33342 7.52484Z" stroke="#1E1E1E" stroke-linecap="round" stroke-linejoin="round"/>
<path d="M12.8334 4.02484V6.47484C12.8334 8.5165 12.0167 9.33317 9.97508 9.33317H9.33342V7.52484C9.33342 5.48317 8.51675 4.6665 6.47508 4.6665H4.66675V4.02484C4.66675 1.98317 5.48341 1.1665 7.52508 1.1665H9.97508C12.0167 1.1665 12.8334 1.98317 12.8334 4.02484Z" stroke="#1E1E1E" stroke-linecap="round" stroke-linejoin="round"/>
</svg>
