<svg width="24" height="24" viewBox="0 0 24 24" fill="none" xmlns="http://www.w3.org/2000/svg">
<path d="M6.05635 15.497C6.59576 16.7082 7.74355 17.5711 9.09906 17.7845C10.0625 17.9276 11.036 17.9996 12.0109 18C12.9845 17.9994 13.9567 17.9274 14.9188 17.7845C16.2802 17.5608 17.4287 16.6871 17.9655 15.467C18.042 15.2284 17.9896 14.9688 17.8256 14.7749C17.6616 14.5809 17.4077 14.478 17.1484 14.5003C16.889 14.5227 16.6584 14.6673 16.5331 14.8861C16.2137 15.6304 15.5189 16.1657 14.6921 16.3045C13.805 16.4365 12.9086 16.5022 12.0109 16.5011C11.1232 16.5035 10.2367 16.4408 9.35901 16.3137C8.53007 16.1846 7.82749 15.6581 7.49666 14.918C7.42728 14.7657 7.30718 14.6398 7.15505 14.56C7.00292 14.4803 6.82749 14.4514 6.65627 14.4777C6.42194 14.5143 6.21761 14.6509 6.10092 14.8491C5.98422 15.0474 5.96788 15.2858 6.05635 15.497Z" fill="black"/>
<path d="M8.65122 10.607C8.4537 10.7301 8.32461 10.9321 8.29995 11.1569C8.27528 11.3816 8.35775 11.605 8.52433 11.7649L10.4258 13.5879C10.6528 13.8099 10.9266 13.9829 11.229 14.0956C11.6259 14.2418 12.0587 14.2748 12.4749 14.1902C12.8911 14.1058 13.2728 13.9077 13.574 13.6196L15.5067 11.7648V11.7649C15.6709 11.6078 15.7537 11.3889 15.733 11.1674C15.7123 10.946 15.59 10.7448 15.3993 10.6183C15.2401 10.5199 15.0502 10.4778 14.8621 10.4993C14.6741 10.5209 14.4999 10.6047 14.3694 10.7363L12.806 12.2351V6.74935C12.806 6.48157 12.657 6.23419 12.4152 6.10037C12.1732 5.96654 11.8752 5.96654 11.6334 6.10037C11.3916 6.23419 11.2426 6.4816 11.2426 6.74935V12.2368L9.66162 10.7193C9.53348 10.5904 9.36227 10.5086 9.1777 10.4881C8.99313 10.4674 8.80692 10.5095 8.65125 10.6069L8.65122 10.607Z" fill="black"/>
</svg>
