<svg width="24" height="24" viewBox="0 0 24 24" fill="none" xmlns="http://www.w3.org/2000/svg">
<path fill-rule="evenodd" clip-rule="evenodd" d="M5.45451 5C4.09892 5 3 6.17523 3 7.62495V16.375C3 17.8248 4.09892 19 5.45451 19H18.5455C19.9011 19 21 17.8248 21 16.375V7.62495C21 6.17523 19.9011 5 18.5455 5H5.45451ZM4.63639 7.85846V16.3749C4.63639 16.8582 5.00264 17.2499 5.45451 17.2499H18.5455C18.9974 17.2499 19.3636 16.8582 19.3636 16.3749V7.85846L13.5071 12.73C12.6208 13.4672 11.3797 13.4672 10.4932 12.73L4.63639 7.85846ZM18.031 6.75002H5.96919L11.4978 11.3486C11.7933 11.5942 12.2071 11.5942 12.5025 11.3486L18.031 6.75002Z" fill="#1E1E1E"/>
</svg>
