<svg width="18" height="19" viewBox="0 0 18 19" fill="none" xmlns="http://www.w3.org/2000/svg">
<path d="M17.5127 7.72184L10.0127 0.906213C9.73618 0.653237 9.37498 0.512939 9.0002 0.512939C8.62542 0.512939 8.26422 0.653237 7.9877 0.906213L0.4877 7.72184C0.334142 7.86232 0.211499 8.03322 0.127571 8.22368C0.0436425 8.41413 0.000266168 8.61996 0.000200032 8.82809V17.4625C-0.00589792 17.8406 0.127612 18.2078 0.3752 18.4937C0.51572 18.6535 0.688823 18.7814 0.88287 18.8687C1.07692 18.956 1.28741 19.0008 1.5002 19H6.0002C6.19911 19 6.38988 18.9209 6.53053 18.7803C6.67118 18.6396 6.7502 18.4489 6.7502 18.25V13.75C6.7502 13.551 6.82922 13.3603 6.96987 13.2196C7.11052 13.079 7.30129 13 7.5002 13H10.5002C10.6991 13 10.8899 13.079 11.0305 13.2196C11.1712 13.3603 11.2502 13.551 11.2502 13.75V18.25C11.2502 18.4489 11.3292 18.6396 11.4699 18.7803C11.6105 18.9209 11.8013 19 12.0002 19H16.5002C16.749 19.0022 16.9942 18.9408 17.2127 18.8218C17.4504 18.6924 17.649 18.5013 17.7875 18.2688C17.9261 18.0362 17.9995 17.7707 18.0002 17.5V8.82809C18.0001 8.61996 17.9568 8.41413 17.8728 8.22368C17.7889 8.03322 17.6663 7.86232 17.5127 7.72184Z" fill="#B0B0B0"/>
</svg>
