<svg width="24" height="24" viewBox="0 0 24 24" fill="none" xmlns="http://www.w3.org/2000/svg">
<path fill-rule="evenodd" clip-rule="evenodd" d="M15.5455 3.36891C16.4817 2.43269 17.9996 2.43269 18.9358 3.36891L20.631 5.06408C21.5672 6.00029 21.5672 7.5182 20.631 8.45441L19.128 9.9574C19.01 9.89898 18.8859 9.8358 18.7572 9.76804C17.8908 9.31193 16.8627 8.67178 16.0955 7.9045C15.3282 7.13723 14.688 6.10914 14.2319 5.24278C14.1641 5.11404 14.101 4.98989 14.0425 4.87189L15.5455 3.36891ZM14.9955 9.00445C15.9035 9.91239 17.0581 10.627 17.9726 11.1128L12.0621 17.0233C11.6953 17.3901 11.2195 17.628 10.706 17.7014L7.14612 18.2099C6.35504 18.3229 5.67697 17.6449 5.78998 16.8538L6.29853 13.294C6.37189 12.7805 6.60982 12.3046 6.9766 11.9378L12.8871 6.02729C13.3729 6.94177 14.0875 8.09649 14.9955 9.00445ZM3.44428 19.7779C3.01473 19.7779 2.6665 20.1261 2.6665 20.5556C2.6665 20.9852 3.01473 21.3334 3.44428 21.3334H20.5554C20.9849 21.3334 21.3332 20.9852 21.3332 20.5556C21.3332 20.1261 20.9849 19.7779 20.5554 19.7779H3.44428Z" fill="#929292"/>
</svg>
