<svg width="24" height="24" viewBox="0 0 24 24" fill="none" xmlns="http://www.w3.org/2000/svg">
<g clip-path="url(#clip0_649_14326)">
<path d="M4.40525 7.70562C4.62021 7.86075 4.88807 7.92437 5.14989 7.88218C5.41172 7.83999 5.6461 7.69557 5.80121 7.48061C6.65614 6.30357 7.83181 5.39755 9.18789 4.87098C9.70732 5.76967 10.6248 6.36563 11.6569 6.475C12.689 6.58415 13.7112 6.19352 14.4072 5.42367C15.1032 4.65377 15.3891 3.59753 15.1766 2.58169C14.9639 1.56584 14.2786 0.712686 13.3324 0.286566C12.3862 -0.139777 11.2931 -0.0879938 10.3913 0.425854C9.48972 0.939701 8.88789 1.85353 8.77251 2.88503C6.92872 3.53258 5.32669 4.72723 4.17982 6.30965C4.02469 6.52461 3.96129 6.79247 4.00348 7.05429C4.04589 7.31613 4.19029 7.55028 4.40525 7.70562ZM12.0002 1.99993C12.3317 1.99993 12.6498 2.13163 12.8842 2.36601C13.1186 2.60038 13.2502 2.91847 13.2502 3.24996C13.2502 3.58145 13.1185 3.89952 12.8842 4.13392C12.6498 4.36832 12.3317 4.49999 12.0002 4.49999C11.6687 4.49999 11.3507 4.36829 11.1163 4.13392C10.8819 3.89954 10.7502 3.58145 10.7502 3.24996C10.7502 2.91847 10.8819 2.60041 11.1163 2.36601C11.3506 2.1316 11.6687 1.99993 12.0002 1.99993Z" fill="#B0B0B0"/>
<path d="M19.5966 16.2948C19.3819 16.1392 19.114 16.0754 18.8522 16.1171C18.5902 16.1591 18.3558 16.3033 18.2002 16.5182C17.3446 17.695 16.1709 18.6028 14.8171 19.1352C14.2995 18.2348 13.3821 17.6363 12.3495 17.5254C11.3166 17.4142 10.2932 17.8042 9.59581 18.5741C8.89872 19.344 8.61208 20.4011 8.8246 21.4179C9.03733 22.4346 9.72347 23.2882 10.6709 23.7142C11.6182 24.1403 12.7122 24.0874 13.6138 23.5717C14.5155 23.0561 15.1162 22.1402 15.2296 21.1079C17.0705 20.4596 18.6712 19.2684 19.8208 17.6913C19.9761 17.4764 20.04 17.2085 19.998 16.9467C19.956 16.6848 19.8116 16.4502 19.5967 16.2949L19.5966 16.2948ZM12.0005 21.9998C11.6691 21.9998 11.351 21.8681 11.1166 21.6337C10.8822 21.3993 10.7505 21.0812 10.7505 20.7497C10.7505 20.4183 10.8822 20.1002 11.1166 19.8658C11.351 19.6314 11.669 19.4997 12.0005 19.4997C12.332 19.4997 12.6501 19.6314 12.8845 19.8658C13.1189 20.1002 13.2506 20.4183 13.2506 20.7497C13.2506 21.0812 13.1189 21.3993 12.8845 21.6337C12.6501 21.8681 12.332 21.9998 12.0005 21.9998Z" fill="#B0B0B0"/>
<path d="M7.48061 18.1999C6.30334 17.3452 5.39755 16.1695 4.87098 14.8132C5.76967 14.294 6.36562 13.3763 6.475 12.3442C6.58415 11.3122 6.19352 10.2901 5.42367 9.59413C4.65377 8.89812 3.59753 8.61218 2.58168 8.8247C1.56584 9.0372 0.712686 9.72271 0.286566 10.6689C-0.139777 11.6151 -0.0879938 12.708 0.425854 13.6098C0.939701 14.5116 1.85353 15.1132 2.88503 15.2288C3.53258 17.0724 4.72723 18.6746 6.30965 19.8213C6.59917 20.0304 6.9784 20.0692 7.30452 19.923C7.63042 19.7768 7.85364 19.4677 7.89002 19.1123C7.92618 18.7567 7.77015 18.4089 7.48064 18.1998L7.48061 18.1999ZM1.99996 11.9998C1.99996 11.6683 2.13166 11.3502 2.36604 11.1158C2.60041 10.8814 2.9185 10.7497 3.24999 10.7497C3.58148 10.7497 3.89954 10.8814 4.13395 11.1158C4.36835 11.3502 4.50002 11.6683 4.50002 11.9998C4.50002 12.3313 4.36832 12.6493 4.13395 12.8837C3.89957 13.1181 3.58148 13.2498 3.24999 13.2498C2.9185 13.2498 2.60044 13.1181 2.36604 12.8837C2.13163 12.6494 1.99996 12.3313 1.99996 11.9998Z" fill="#B0B0B0"/>
<path d="M21.1153 8.77183C20.4678 6.92804 19.2731 5.32601 17.6907 4.17914C17.401 3.98115 17.0284 3.94945 16.7094 4.09588C16.3905 4.24231 16.1715 4.54522 16.1326 4.89412C16.0938 5.24301 16.2407 5.58676 16.5197 5.79973C17.6965 6.65466 18.603 7.82988 19.1309 9.18527C18.2318 9.70402 17.6351 10.6215 17.5252 11.6536C17.4154 12.6857 17.8058 13.7081 18.5755 14.4045C19.3451 15.101 20.4014 15.3874 21.4175 15.1751C22.4333 14.9628 23.2867 14.2775 23.7133 13.3313C24.1398 12.385 24.0883 11.2919 23.5746 10.3901C23.0608 9.48813 22.1467 8.88635 21.1152 8.77069L21.1153 8.77183ZM20.7504 13.2498C20.4189 13.2498 20.1008 13.1181 19.8664 12.8837C19.632 12.6493 19.5003 12.3312 19.5003 11.9998C19.5003 11.6683 19.632 11.3502 19.8664 11.1158C20.1008 10.8814 20.4189 10.7497 20.7504 10.7497C21.0819 10.7497 21.3999 10.8814 21.6343 11.1158C21.8687 11.3502 22.0004 11.6683 22.0004 11.9998C22.0004 12.3312 21.8687 12.6493 21.6343 12.8837C21.3999 13.1181 21.0819 13.2498 20.7504 13.2498Z" fill="#B0B0B0"/>
<path d="M12.2085 13.5717L10.923 13.5657H10.9186C10.5612 13.565 10.2306 13.7548 10.0514 14.0639C9.87212 14.3728 9.87123 14.7541 10.0491 15.0639C10.227 15.3738 10.5567 15.565 10.9141 15.5657H10.9927H10.9925C11.009 15.8173 11.1197 16.0532 11.3027 16.2264C11.4855 16.3996 11.7271 16.4974 11.9791 16.5003H11.984C12.2485 16.5003 12.5021 16.3956 12.6894 16.2092C12.8769 16.0226 12.9827 15.7697 12.984 15.5052V15.4282C13.6631 15.1847 14.187 14.6342 14.3966 13.9438C14.6062 13.2536 14.4767 12.5047 14.0477 11.9248C13.6186 11.3447 12.9405 11.0018 12.2191 11.0002H11.7905C11.7153 11 11.6432 10.9692 11.5905 10.9151C11.5371 10.8625 11.5075 10.7904 11.5081 10.7151C11.509 10.558 11.6363 10.4308 11.7936 10.4301L13.0791 10.4357H13.0836C13.441 10.4366 13.7715 10.2466 13.9508 9.93768C14.13 9.62852 14.1309 9.2475 13.953 8.93766C13.7751 8.62783 13.4454 8.43654 13.088 8.43564H13.0095H13.0097C12.9941 8.18341 12.8834 7.94657 12.6999 7.77289C12.5164 7.59923 12.2738 7.50168 12.0211 7.50012H12.0162C11.7516 7.50012 11.4981 7.60481 11.3108 7.7912C11.1233 7.97781 11.0175 8.23072 11.0161 8.49521V8.57222C10.3362 8.81508 9.81142 9.36578 9.60159 10.0564C9.39154 10.7473 9.52101 11.4966 9.9507 12.077C10.3804 12.6571 11.0596 12.9995 11.7815 13.0002H12.2106C12.3637 13.0066 12.4847 13.1325 12.4847 13.2859C12.4847 13.4392 12.3637 13.5654 12.2106 13.5716L12.2085 13.5717Z" fill="#B0B0B0"/>
</g>
<defs>
<clipPath id="clip0_649_14326">
<rect width="24" height="24" fill="white"/>
</clipPath>
</defs>
</svg>
